<?xml version="1.0" encoding="iso-8859-1"?>
<!-- Generator: Adobe Illustrator 16.0.0, SVG Export Plug-In . SVG Version: 6.00 Build 0)  -->
<!DOCTYPE svg PUBLIC "-//W3C//DTD SVG 1.1//EN" "http://www.w3.org/Graphics/SVG/1.1/DTD/svg11.dtd">
<svg version="1.1" id="Layer_1" xmlns="http://www.w3.org/2000/svg" xmlns:xlink="http://www.w3.org/1999/xlink" x="0px" y="0px"
	 width="94.56px" height="116.4px" viewBox="0 0 94.56 116.4" style="enable-background:new 0 0 94.56 116.4;" xml:space="preserve"
	>
<path style="fill-rule:evenodd;clip-rule:evenodd;fill:none;" d="M0,0c31.517,0,63.043,0,94.56,0c0,38.796,0,77.604,0,116.4
	c-15.838-8.719-31.682-17.441-47.52-26.16C31.362,98.879,15.678,107.521,0,116.16C0,77.444,0,38.716,0,0z"/>
<path style="fill-rule:evenodd;clip-rule:evenodd;fill:#2759A9;" d="M11.04,6.72c26.478,0,52.962,0,79.44,0
	c0,32.557,0,65.124,0,97.68c-13.306-7.317-26.616-14.636-39.921-21.953c-13.172,7.25-26.347,14.501-39.519,21.751
	C11.04,71.709,11.04,39.209,11.04,6.72z"/>
</svg>
